<svg width="80" height="80" viewBox="0 0 80 80" fill="none" xmlns="http://www.w3.org/2000/svg">
<path fill-rule="evenodd" clip-rule="evenodd" d="M38.2188 34.6028L35.3036 5.45087C35.0118 2.53241 37.3036 1.28202e-07 40.2366 0C43.1976 -1.29432e-07 45.4983 2.57865 45.1621 5.52049L41.8574 34.4367C43.652 34.9728 45.0632 36.3976 45.58 38.2005L74.5489 35.3036C77.4674 35.0118 79.9998 37.3036 79.9998 40.2366C79.9998 43.1976 77.4212 45.4983 74.4793 45.1621L45.3743 41.8358C44.7289 43.3924 43.3914 44.5894 41.7456 45.0432L44.6962 74.5489C44.988 77.4674 42.6962 79.9998 39.7632 79.9998C36.8022 79.9998 34.5015 77.4212 34.8377 74.4793L38.2243 44.8471C36.8114 44.2808 35.6873 43.1471 35.1338 41.7279L5.45087 44.6962C2.53241 44.988 2.56412e-07 42.6962 0 39.7632C-2.58864e-07 36.8022 2.57865 34.5015 5.52049 34.8377L34.9707 38.2035C35.4403 36.5616 36.6515 35.2329 38.2188 34.6028Z" fill="#118899"/>
</svg>
