<svg width="22" height="53" viewBox="0 0 22 53" fill="none" xmlns="http://www.w3.org/2000/svg">
<path fill-rule="evenodd" clip-rule="evenodd" d="M17.2318 9.00604L21.4454 0.851471L12.2765 1.27963L14.2453 4.34937C10.3078 6.64389 6.99155 9.88162 4.60147 13.7808C1.93892 18.1245 0.529434 23.1199 0.528809 28.2147C0.528198 33.3095 1.93649 38.3052 4.59799 42.6496C7.25949 46.9939 11.0705 50.5176 15.6097 52.8312L16.8642 50.3699C12.7789 48.2877 9.34898 45.1163 6.95364 41.2064C4.55829 37.2965 3.29083 32.8004 3.29138 28.215C3.29193 23.6297 4.56049 19.1339 6.95677 15.2245C9.12845 11.6816 12.1497 8.74554 15.7382 6.67715L17.2318 9.00604Z" fill="#CC0000"/>
</svg>
